<svg width="50" height="50" viewBox="0 0 50 50" fill="none" xmlns="http://www.w3.org/2000/svg">
<circle opacity="0.1" cx="25" cy="25" r="25" fill="#C4C4C4"/>
<path d="M25 37.6665C25 38.0346 25.2988 38.3349 25.6666 38.3168C32.7207 37.9694 38.3334 32.1401 38.3334 24.9998C38.3334 17.636 32.3638 11.6665 25 11.6665C17.6362 11.6665 11.6667 17.636 11.6667 24.9998C11.6667 31.1666 15.8532 36.3556 21.5391 37.8796C21.9462 37.9888 22.3334 37.6724 22.3334 37.2509V27.6665H21C20.2636 27.6665 19.6667 27.0696 19.6667 26.3332C19.6667 25.5968 20.2636 24.9998 21 24.9998H22.3334V22.3332C22.3334 20.124 24.1242 18.3332 26.3334 18.3332H27.6667C28.4031 18.3332 29 18.9301 29 19.6665C29 20.4029 28.4031 20.9998 27.6667 20.9998H26.3334C25.597 20.9998 25 21.5968 25 22.3332V24.9998H27.6667C28.4031 24.9998 29 25.5968 29 26.3332C29 27.0696 28.4031 27.6665 27.6667 27.6665H25V37.6665Z" fill="white"/>
</svg>
