<svg width="50" height="50" viewBox="0 0 50 50" fill="none" xmlns="http://www.w3.org/2000/svg">
<circle opacity="0.1" cx="25" cy="25" r="25" fill="#C4C4C4"/>
<path d="M25 28.5C26.933 28.5 28.5 26.933 28.5 25C28.5 23.0669 26.933 21.5 25 21.5C23.0669 21.5 21.5 23.0669 21.5 25C21.5 26.933 23.0669 28.5 25 28.5Z" fill="white"/>
<path fill-rule="evenodd" clip-rule="evenodd" d="M19.1666 13.3335C15.945 13.3335 13.3333 15.9452 13.3333 19.1668V30.8335C13.3333 34.0551 15.945 36.6668 19.1666 36.6668H30.8333C34.0549 36.6668 36.6666 34.0551 36.6666 30.8335V19.1668C36.6666 15.9452 34.0549 13.3335 30.8333 13.3335H19.1666ZM25 30.8335C28.2216 30.8335 30.8333 28.2218 30.8333 25.0002C30.8333 21.7785 28.2216 19.1668 25 19.1668C21.7783 19.1668 19.1666 21.7785 19.1666 25.0002C19.1666 28.2218 21.7783 30.8335 25 30.8335ZM33.1666 18.0002C33.1666 18.6445 32.6443 19.1668 32 19.1668C31.3556 19.1668 30.8333 18.6445 30.8333 18.0002C30.8333 17.3558 31.3556 16.8335 32 16.8335C32.6443 16.8335 33.1666 17.3558 33.1666 18.0002Z" fill="white"/>
</svg>
