<svg width="56" height="24" viewBox="0 0 56 24" fill="none" xmlns="http://www.w3.org/2000/svg">
<path d="M0.721591 18H11.571V15.3494H3.88352V0.545454H0.721591V18ZM19.8892 18.2557C23.7244 18.2557 26.1619 15.554 26.1619 11.5057C26.1619 7.44886 23.7244 4.73864 19.8892 4.73864C16.054 4.73864 13.6165 7.44886 13.6165 11.5057C13.6165 15.554 16.054 18.2557 19.8892 18.2557ZM19.9062 15.7841C17.7841 15.7841 16.7443 13.892 16.7443 11.4972C16.7443 9.10227 17.7841 7.18466 19.9062 7.18466C21.9943 7.18466 23.0341 9.10227 23.0341 11.4972C23.0341 13.892 21.9943 15.7841 19.9062 15.7841ZM34.4737 23.1818C38.0107 23.1818 40.6186 21.5625 40.6186 18.2131V4.90909H37.576V7.07386H37.4055C36.9368 6.12784 35.9567 4.73864 33.647 4.73864C30.6214 4.73864 28.2436 7.10795 28.2436 11.4119C28.2436 15.6818 30.6214 17.8125 33.6385 17.8125C35.88 17.8125 36.9283 16.6108 37.4055 15.6477H37.5589V18.1278C37.5589 20.054 36.2805 20.8466 34.5249 20.8466C32.6669 20.8466 31.8487 19.9688 31.4737 19.2017L28.6953 19.875C29.2578 21.7074 31.1413 23.1818 34.4737 23.1818ZM34.4993 15.392C32.4624 15.392 31.3885 13.8068 31.3885 11.3949C31.3885 9.01705 32.4453 7.26989 34.4993 7.26989C36.4851 7.26989 37.576 8.91477 37.576 11.3949C37.576 13.892 36.468 15.392 34.4993 15.392ZM49.4908 18.2557C53.326 18.2557 55.7635 15.554 55.7635 11.5057C55.7635 7.44886 53.326 4.73864 49.4908 4.73864C45.6555 4.73864 43.218 7.44886 43.218 11.5057C43.218 15.554 45.6555 18.2557 49.4908 18.2557ZM49.5078 15.7841C47.3857 15.7841 46.3459 13.892 46.3459 11.4972C46.3459 9.10227 47.3857 7.18466 49.5078 7.18466C51.5959 7.18466 52.6357 9.10227 52.6357 11.4972C52.6357 13.892 51.5959 15.7841 49.5078 15.7841Z" fill="white"/>
</svg>
